<?xml version="1.0" encoding="UTF-8"?>
<svg id="svg2" xmlns="http://www.w3.org/2000/svg" viewBox="0 0 1090.27 1090.29">
  <defs>
    <style>
      .cls-1 {
        fill-rule: evenodd;
      }

      .cls-1, .cls-2, .cls-3 {
        stroke-width: 0px;
      }

      .cls-1, .cls-3 {
        fill: #fff;
      }

      .cls-2 {
        fill: #e30613;
      }
    </style>
  </defs>
  <rect id="rect4525" class="cls-2" width="1090.27" height="1090.29" rx="62.08" ry="62.08"/>
  <g>
    <path id="path4527" class="cls-1" d="m281.62,616.44c0-72.54-40.88-97.33-96.59-97.33h-105.43v312.18h73.17v-113.51h26.95c59.84,0,101.89-27.62,101.89-101.34m-74.29,1.53c0,28.16-8.94,39.2-30.02,39.2h-24.53v-77.43h25.07c21.41,0,29.49,10.63,29.49,38.23"/>
    <path id="path4529" class="cls-1" d="m503.8,744.07c0-51.93-23.42-77.81-86.2-105.15-31.66-14.26-39.56-23.23-39.56-40.26,0-11.6,7.89-22.21,22.1-22.21,19.86,0,27.42,8.1,48.9,33.63l51.69-46.57c-26.3-32.09-50.15-49.4-98.17-49.4-59.69,0-96.85,40.07-96.85,90.74s22.8,73.02,85.03,100.18c34.64,15.47,39.87,26.13,39.87,43.41s-11.17,25-26.73,25-32.22-13.07-52.9-37.58l-51.17,45.81c25.87,34.36,53.92,54.43,102.75,54.43,58.08,0,101.24-33.61,101.24-92.02"/>
    <path id="path4531" class="cls-1" d="m750.32,674.69c0-109.97-41.77-160.58-111.31-160.58s-112.32,51.49-112.32,161.25,41.3,160.75,110.86,160.75,112.77-51.4,112.77-161.42m-76.71.67c0,75.83-11.39,96.29-34.6,96.29s-35.29-21.67-35.29-96.96,10.94-96.7,34.62-96.7,35.27,22.22,35.27,97.37"/>
    <polygon id="polygon4533" class="cls-1" points="972.49 831.28 972.49 767.38 860.96 767.38 860.96 699.46 931.93 699.46 931.93 636.49 860.96 636.49 860.96 582.88 969.65 582.88 969.65 519.11 786.91 519.11 786.91 831.28 972.49 831.28"/>
  </g>
  <g>
    <path class="cls-3" d="m101.21,420.53v-221.55h66.5c17.64,0,30.83,5.48,39.57,16.44,8.74,10.96,13.11,26.9,13.11,47.84,0,8.28-.66,15.72-1.98,22.32-1.32,6.59-3.27,12.16-5.83,16.7-2.57,4.54-5.53,8.4-8.9,11.56-3.37,3.16-7.3,5.63-11.79,7.42-4.49,1.78-9.08,3.05-13.77,3.81-4.69.76-9.88,1.14-15.57,1.14h-17.32v94.34h-44.02Zm44.02-128.41h14.07c7.94,0,13.21-2.25,15.81-6.75,2.6-4.5,3.91-12.14,3.91-22.92,0-3.83-.1-7.04-.3-9.62-.2-2.58-.68-5.21-1.44-7.88-.76-2.67-1.85-4.79-3.25-6.35-1.4-1.56-3.35-2.83-5.83-3.81-2.49-.98-5.49-1.47-9.02-1.47h-13.95v58.79Z"/>
    <path class="cls-3" d="m290.3,423.6c-21.03,0-36.68-5.59-46.97-16.77s-15.83-29.02-16.64-53.52l41.96-6.41c.18,13.9,1.85,23.99,5.01,30.27,3.16,6.28,7.9,9.42,14.23,9.42,8.28,0,12.43-5.35,12.43-16.04,0-5.97-1.07-11.47-3.21-16.5-2.14-5.03-4.77-9.33-7.88-12.89-3.12-3.56-7.48-7.75-13.1-12.56l-19.64-16.97c-4.72-4.1-8.64-7.84-11.76-11.22-3.12-3.38-6.17-7.42-9.15-12.09-2.99-4.68-5.19-9.87-6.61-15.57-1.43-5.7-2.14-11.98-2.14-18.84,0-18.44,5.52-32.69,16.57-42.76,11.04-10.07,26.19-15.14,45.43-15.23,6.59,0,12.58.71,17.97,2.14,5.39,1.43,9.93,3.3,13.63,5.61,3.7,2.32,6.95,5.23,9.75,8.75,2.81,3.52,5.03,7.04,6.68,10.56,1.65,3.52,3.03,7.48,4.14,11.89,1.11,4.41,1.87,8.44,2.27,12.09.4,3.65.69,7.57.87,11.76l-42.36,5.48c-.09-3.74-.2-6.84-.33-9.29-.13-2.45-.38-5.05-.74-7.82-.36-2.76-.85-4.99-1.47-6.68-.62-1.69-1.45-3.27-2.47-4.74-1.03-1.47-2.32-2.52-3.88-3.14-1.56-.62-3.41-.89-5.55-.8-4.28.09-7.55,1.89-9.82,5.41-2.27,3.52-3.41,7.46-3.41,11.83s.51,8,1.54,11.42c1.02,3.43,2.81,6.75,5.35,9.96s4.61,5.61,6.21,7.22,4.28,4.1,8.02,7.48l18.84,16.57c5.17,4.63,9.62,9.07,13.36,13.29,3.74,4.23,7.3,9.04,10.69,14.43,3.38,5.39,5.95,11.31,7.68,17.77s2.61,13.38,2.61,20.78c0,16.04-5.35,29.33-16.04,39.89-10.69,10.55-24.72,15.83-42.09,15.83Z"/>
    <path class="cls-3" d="m391.83,423.33c-11.94,0-21.05-4.14-27.33-12.43-6.28-8.28-9.42-20.58-9.42-36.88v-64.27c0-15.05,3.14-27.17,9.42-36.35,6.28-9.17,15.39-13.76,27.33-13.76,10.96,0,21.25,4.14,30.87,12.43v-73.09h44.63v221.55h-44.63v-12.03c-10.07,9.8-20.36,14.74-30.87,14.83Zm19.24-28.73c3.12,0,6.99-1.29,11.62-3.88v-99.55c-3.92-2.32-7.71-3.47-11.36-3.47-3.92,0-6.82,1.58-8.69,4.74-1.87,3.16-2.81,7.28-2.81,12.36v72.16c0,5.17.89,9.4,2.67,12.69,1.78,3.3,4.63,4.95,8.55,4.95Z"/>
    <path class="cls-3" d="m534.53,423.33c-17.46,0-30.96-4.68-40.49-14.03-9.53-9.35-14.3-22.54-14.3-39.55v-56.66c0-17.01,4.79-30.18,14.37-39.49,9.58-9.31,23.05-13.96,40.42-13.96s30.71,4.52,39.49,13.56c8.77,9.04,13.16,22.34,13.16,39.89v31.14h-63.2v27.79c0,6.41.8,11.25,2.41,14.5,1.6,3.25,4.32,4.88,8.15,4.88,7.48,0,11.22-5.12,11.22-15.37v-10.56h41.42v9.22c0,15.77-4.61,27.82-13.83,36.14-9.22,8.33-22.16,12.49-38.82,12.49Zm-10.56-99.95h21.78v-15.77c0-5.88-.98-10.04-2.94-12.49-1.96-2.45-4.77-3.67-8.42-3.67s-6.08,1.43-7.82,4.28c-1.74,2.85-2.61,7.71-2.61,14.57v13.09Z"/>
    <path class="cls-3" d="m659.31,423.73c-11.22,0-20.83-1.8-28.8-5.41-7.97-3.61-14.28-8.88-18.91-15.83-4.63-6.95-8-14.97-10.09-24.05-2.09-9.09-3.14-19.6-3.14-31.54v-73.63c0-9.8.69-18.57,2.07-26.32,1.38-7.75,3.65-14.88,6.82-21.38,3.16-6.5,7.28-11.89,12.36-16.17,5.08-4.28,11.4-7.59,18.97-9.96,7.57-2.36,16.35-3.54,26.32-3.54s18.13,1.03,25.52,3.07c7.39,2.05,13.56,4.9,18.51,8.55,4.94,3.65,8.97,8.22,12.09,13.7,3.12,5.48,5.34,11.45,6.68,17.91,1.34,6.46,2,13.7,2,21.71v14.03h-47.84v-17.77c0-3.38-.07-6.15-.2-8.28s-.49-4.5-1.07-7.08c-.58-2.58-1.43-4.59-2.54-6.01-1.12-1.42-2.72-2.65-4.81-3.67-2.09-1.02-4.66-1.54-7.68-1.54s-5.77.58-7.95,1.74c-2.18,1.16-3.85,2.56-5.01,4.21-1.16,1.65-2.07,3.85-2.74,6.61-.67,2.76-1.07,5.28-1.2,7.55-.13,2.27-.2,5.06-.2,8.35v101.42c0,8.82,1.31,15.79,3.94,20.91,2.63,5.12,7.42,7.68,14.36,7.68,12.83,0,19.24-9.84,19.24-29.53v-24.85h-20.04v-29.26h64.27v115.18h-32.47l-2.81-18.57c-6.5,14.52-18.4,21.78-35.68,21.78Z"/>
  </g>
</svg>