<?xml version="1.0" encoding="UTF-8" standalone="no"?> <svg xmlns="http://www.w3.org/2000/svg" xmlns:svg="http://www.w3.org/2000/svg" viewBox="0 0 154 77.951925" width="154" height="77.951927" version="1.1" id="svg11"><defs id="defs11"></defs><g id="g11" transform="scale(0.19308892)"><path fill="#e62558" d="m 0,190.29 h 40.92 c 1.71,20.18 15.06,32.96 36.09,32.96 19.04,0 31.82,-7.96 31.82,-23.02 0,-38.93 -103.15,-9.09 -103.15,-87.24 0,-32.96 28.42,-56.26 68.76,-56.26 42.91,0 71.89,24.72 73.03,62.51 h -40.64 c -1.42,-15.63 -13.35,-25.86 -32.4,-25.86 -16.77,0 -27.28,7.96 -27.28,19.61 0,41.49 104.57,7.96 104.57,86.67 0,37.23 -30.12,60.53 -74.73,60.53 -45.16,0 -75.28,-27.56 -76.99,-69.9" id="path1"></path><path fill="#e62558" d="m 303,257.92 h -39.78 v -19.89 c -7.96,13.92 -23.87,22.16 -43.48,22.16 -32.39,0 -53.42,-23.3 -53.42,-56.26 V 114.7 h 39.78 v 80.42 c 0,17.33 11.08,29.84 27.56,29.84 17.33,0 29.55,-13.36 29.55,-31.83 V 114.7 H 303 Z" id="path2"></path><path fill="#e62558" d="m 322.94,114.7 h 39.78 v 20.18 c 7.67,-13.07 21.31,-22.45 40.63,-22.45 22.45,0 36.94,9.09 43.76,26.14 6.82,-13.92 24.72,-26.14 47.74,-26.14 31.26,0 51.43,23.02 51.43,51.72 v 93.77 h -39.5 v -81.27 c 0,-18.47 -9.95,-30.69 -25.29,-30.69 -16.48,0 -26.99,12.22 -26.99,30.69 v 81.27 h -39.78 v -81.27 c 0,-18.47 -9.66,-30.69 -25.01,-30.69 -16.48,0 -26.99,12.22 -26.99,30.69 v 81.27 h -39.78 z" id="path3"></path><path fill="#e62558" d="m 687.11,165.85 v 92.07 H 647.9 v -19.89 c -4.83,13.35 -20.74,22.16 -40.35,22.16 -27.85,0 -46.89,-18.47 -46.89,-42.91 0,-28.13 21.03,-45.18 52.28,-45.18 h 24.15 c 7.1,0 10.8,-4.55 10.8,-10.52 0,-11.93 -9.38,-20.17 -25.57,-20.17 -17.33,0 -26.14,10.8 -26.71,22.73 h -35.24 c 1.71,-28.7 25.01,-51.72 64.22,-51.72 36.1,0.01 62.52,21.03 62.52,53.43 M 647.9,199.1 v -1.99 h -28.98 c -11.93,0 -20.46,7.39 -20.46,18.47 0,9.38 7.96,15.91 19.04,15.91 19.32,0 30.4,-14.21 30.4,-32.39" id="path4"></path><path fill="#e62558" d="m 773.98,147.66 c -19.61,0 -28.42,16.2 -28.42,40.64 v 69.62 H 705.78 V 114.7 h 39.78 v 23.87 c 7.67,-17.9 18.47,-23.87 35.8,-23.87 h 16.2 v 32.96 z" id="path5"></path><rect fill="#1e1e1c" width="797.56" height="34.73" id="rect5" x="0" y="0"></rect><path fill="#059cd4" d="m 169.75,350.2 c 0,-35.72 25.4,-53.5 53.05,-53.5 26.3,0 45.13,15.39 46.48,37.81 h -22.27 c -1.64,-11.21 -10.91,-18.53 -24.36,-18.53 -17.78,0 -31.53,12.55 -31.53,34.22 0,21.67 13.75,35.27 31.08,35.27 13,0 25.85,-9.41 25.85,-19.13 0,-2.54 -1.64,-4.18 -4.18,-4.18 H 223.7 v -16.89 h 28.39 c 9.71,0 16.89,7.77 16.89,16.89 v 40.35 H 249.1 v -15.99 c -3.44,10.31 -14.5,17.18 -27.95,17.18 -26.74,0 -51.4,-17.78 -51.4,-53.5" id="path6"></path><path fill="#1e1e1c" d="m 347.89,354.09 v 48.42 h -20.62 v -10.46 c -2.54,7.02 -10.91,11.66 -21.22,11.66 -14.65,0 -24.66,-9.71 -24.66,-22.56 0,-14.8 11.06,-23.76 27.5,-23.76 h 12.7 c 3.74,0 5.68,-2.39 5.68,-5.53 0,-6.28 -4.93,-10.61 -13.45,-10.61 -9.12,0 -13.75,5.68 -14.05,11.96 h -18.53 c 0.9,-15.09 13.15,-27.2 33.77,-27.2 18.98,-0.02 32.88,11.04 32.88,28.08 m -20.62,17.48 v -1.05 h -15.24 c -6.28,0 -10.76,3.88 -10.76,9.71 0,4.93 4.18,8.37 10.01,8.37 10.16,0.01 15.99,-7.47 15.99,-17.03" id="path7"></path><rect x="363.29001" y="294.45999" fill="#1e1e1c" width="20.77" height="108.05" id="rect7"></rect><path fill="#1e1e1c" d="M 422.02,316.43 H 399.9 v -21.97 h 22.12 z m -21.52,10.76 h 20.92 v 75.32 H 400.5 Z" id="path8"></path><path fill="#1e1e1c" d="m 432.78,364.84 c 0,-21.97 15.54,-38.85 38.85,-38.85 19.73,0 35.42,11.95 36.76,29.44 h -20.92 c -1.2,-6.72 -7.62,-11.65 -15.24,-11.65 -11.21,0 -17.78,8.82 -17.78,21.07 0,12.25 6.73,20.92 18.08,20.92 7.62,0 13.75,-4.63 15.24,-11.36 h 21.22 c -2.24,16.74 -17.78,29.29 -37.36,29.29 -23.31,0 -38.85,-16.89 -38.85,-38.86" id="path9"></path><path fill="#1e1e1c" d="M 541.12,316.43 H 519 v -21.97 h 22.12 z m -21.51,10.76 h 20.92 v 75.32 h -20.92 z" id="path10"></path><path fill="#1e1e1c" d="m 619.88,354.09 v 48.42 h -20.62 v -10.46 c -2.54,7.02 -10.91,11.66 -21.22,11.66 -14.65,0 -24.66,-9.71 -24.66,-22.56 0,-14.8 11.06,-23.76 27.5,-23.76 h 12.7 c 3.74,0 5.68,-2.39 5.68,-5.53 0,-6.28 -4.93,-10.61 -13.45,-10.61 -9.12,0 -13.75,5.68 -14.05,11.96 h -18.53 c 0.9,-15.09 13.15,-27.2 33.77,-27.2 18.98,-0.02 32.88,11.04 32.88,28.08 m -20.62,17.48 v -1.05 h -15.24 c -6.28,0 -10.76,3.88 -10.76,9.71 0,4.93 4.18,8.37 10.01,8.37 10.16,0.01 15.99,-7.47 15.99,-17.03" id="path11"></path></g></svg> 